<?xml version="1.0" encoding="UTF-8" standalone="no"?>
<!-- Created with Inkscape (http://www.inkscape.org/) -->

<svg
   xmlns:dc="http://purl.org/dc/elements/1.1/"
   xmlns:cc="http://creativecommons.org/ns#"
   xmlns:rdf="http://www.w3.org/1999/02/22-rdf-syntax-ns#"
   xmlns:svg="http://www.w3.org/2000/svg"
   xmlns="http://www.w3.org/2000/svg"
   xmlns:xlink="http://www.w3.org/1999/xlink"
   xmlns:sodipodi="http://sodipodi.sourceforge.net/DTD/sodipodi-0.dtd"
   xmlns:inkscape="http://www.inkscape.org/namespaces/inkscape"
   width="210mm"
   height="297mm"
   viewBox="0 0 210 297"
   version="1.1"
   id="svg8"
   inkscape:version="0.92.5 (2060ec1f9f, 2020-04-08)"
   sodipodi:docname="maça.svg">
  <defs
     id="defs2">
    <linearGradient
       inkscape:collect="always"
       id="linearGradient4552">
      <stop
         style="stop-color:#000000;stop-opacity:1;"
         offset="0"
         id="stop4548" />
      <stop
         style="stop-color:#000000;stop-opacity:0;"
         offset="1"
         id="stop4550" />
    </linearGradient>
    <linearGradient
       inkscape:collect="always"
       id="linearGradient4536">
      <stop
         style="stop-color:#ffffff;stop-opacity:1;"
         offset="0"
         id="stop4532" />
      <stop
         style="stop-color:#ffffff;stop-opacity:0;"
         offset="1"
         id="stop4534" />
    </linearGradient>
    <radialGradient
       inkscape:collect="always"
       xlink:href="#linearGradient4536"
       id="radialGradient4538"
       cx="-199.19344"
       cy="109.5238"
       fx="-199.19344"
       fy="109.5238"
       r="85.800591"
       gradientTransform="matrix(0.56846316,0,0,0.62538989,-297.60307,26.543343)"
       gradientUnits="userSpaceOnUse" />
    <radialGradient
       inkscape:collect="always"
       xlink:href="#linearGradient4552"
       id="radialGradient4554"
       cx="-376.0863"
       cy="227.45238"
       fx="-376.0863"
       fy="227.45238"
       r="86.556549"
       gradientTransform="matrix(1.1461663,0.04076325,-0.01001886,0.20524015,78.786793,191.18682)"
       gradientUnits="userSpaceOnUse" />
  </defs>
  <sodipodi:namedview
     id="base"
     pagecolor="#ffffff"
     bordercolor="#666666"
     borderopacity="1.0"
     inkscape:pageopacity="0.0"
     inkscape:pageshadow="2"
     inkscape:zoom="0.200389"
     inkscape:cx="-1057.7597"
     inkscape:cy="674.51194"
     inkscape:document-units="mm"
     inkscape:current-layer="layer1"
     showgrid="false"
     inkscape:snap-bbox="true"
     inkscape:bbox-paths="true"
     inkscape:bbox-nodes="true"
     inkscape:snap-global="false"
     showguides="false"
     inkscape:window-width="1920"
     inkscape:window-height="1011"
     inkscape:window-x="0"
     inkscape:window-y="0"
     inkscape:window-maximized="1" />
  <metadata
     id="metadata5">
    <rdf:RDF>
      <cc:Work
         rdf:about="">
        <dc:format>image/svg+xml</dc:format>
        <dc:type
           rdf:resource="http://purl.org/dc/dcmitype/StillImage" />
        <dc:title></dc:title>
      </cc:Work>
    </rdf:RDF>
  </metadata>
  <g
     inkscape:label="Camada 1"
     inkscape:groupmode="layer"
     id="layer1">
    <g
       id="g4589"
       transform="translate(443.63712,40.930805)">
      <g
         transform="translate(24.946429,-0.75595238)"
         id="g4562">
        <path
           style="fill:url(#radialGradient4554);fill-opacity:1;stroke-width:0.28041607"
           id="path4546"
           sodipodi:type="arc"
           sodipodi:cx="-354.54947"
           sodipodi:cy="222.53868"
           sodipodi:rx="99.294273"
           sodipodi:ry="17.764881"
           sodipodi:start="6.2556946"
           sodipodi:end="6.2545619"
           d="m -255.29271,222.05037 a 99.294273,17.764881 0 0 1 -96.49933,18.24634 99.294273,17.764881 0 0 1 -102.01262,-17.25966 99.294273,17.764881 0 0 1 96.44154,-18.25612 99.294273,17.764881 0 0 1 102.06725,17.24933 l -99.2536,0.50842 z" />
        <path
           inkscape:connector-curvature="0"
           style="fill:#ff0000;stroke-width:0.26458332"
           d="m -335.42188,81.841797 c -7.26945,0.603035 -14.49528,1.637804 -21.76433,2.250209 -9.45155,0.872519 -18.95697,1.261273 -28.44451,0.855544 -8.90137,-0.214254 -17.84342,-1.042047 -26.72502,-0.04257 -8.064,1.18274 -15.73556,5.038096 -21.3631,10.955026 -8.0356,8.029994 -13.0473,18.550204 -16.40995,29.276894 -7.48105,24.54666 -3.64256,52.60695 11.32819,73.61672 6.83599,9.67705 15.94717,17.97862 26.85526,22.78958 7.66902,3.07443 16.10825,3.22354 24.24167,2.69705 15.4623,-0.6754 30.86155,1.43751 46.31096,1.55627 5.43329,0.006 11.00702,-0.57659 15.96488,-2.95226 8.03124,-3.59384 14.70919,-9.57901 20.58379,-16.01946 15.14542,-16.95571 23.18059,-40.06512 21.7217,-62.76257 -1.03234,-16.8395 -7.3738,-33.4766 -18.56736,-46.189385 -3.85683,-4.331101 -8.27088,-8.235079 -13.30313,-11.146941 -6.21975,-3.403656 -13.36175,-4.974226 -20.42905,-4.884107 z"
           id="path3713" />
        <ellipse
           style="fill:none;stroke-width:0.26458332"
           ry="84.666664"
           rx="85.800591"
           cy="139.00595"
           cx="-305.78271"
           id="ellipse3715" />
        <ellipse
           style="fill:url(#radialGradient4538);fill-opacity:1;stroke-width:0.15881005"
           ry="53.658821"
           rx="48.774475"
           cy="95.038422"
           cx="-410.83719"
           id="ellipse3717"
           transform="matrix(0.9982317,-0.05944294,0.04779424,0.9988572,0,0)" />
        <ellipse
           style="fill:#ffffff;fill-opacity:1;stroke-width:0.26458332"
           id="path4542"
           cx="-357.1875"
           cy="23.345238"
           rx="9.4494047"
           ry="2.2678571" />
        <path
           style="fill:#000000;fill-opacity:1;stroke-width:0.49141923"
           id="path4544"
           sodipodi:type="arc"
           sodipodi:cx="-374.198"
           sodipodi:cy="90.15361"
           sodipodi:rx="17.385305"
           sodipodi:ry="4.5357146"
           sodipodi:start="0"
           sodipodi:end="6.2545672"
           d="m -356.81269,90.15361 a 17.385305,4.5357146 0 0 1 -17.26093,4.535599 17.385305,4.5357146 0 0 1 -17.5079,-4.470699 17.385305,4.5357146 0 0 1 17.0104,-4.59957 17.385305,4.5357146 0 0 1 17.75131,4.404884 L -374.198,90.15361 Z" />
      </g>
      <path
         inkscape:transform-center-y="-24.236497"
         inkscape:transform-center-x="-41.238672"
         sodipodi:nodetypes="aaaca"
         inkscape:connector-curvature="0"
         id="path4566"
         d="m -329.783,40.147173 c 10.27024,-5.774432 32.94741,-7.070918 41.51814,6.350725 7.42529,11.627876 -3.45154,26.266719 -11.03083,33.551372 -11.61238,11.160943 -48.81669,11.757834 -48.81669,11.757834 0,0 4.02629,-43.618053 18.32938,-51.659931 z"
         style="fill:#009900;stroke:#000000;stroke-width:0.15520665px;stroke-linecap:butt;stroke-linejoin:miter;stroke-opacity:1" />
      <path
         sodipodi:nodetypes="cccc"
         inkscape:connector-curvature="0"
         id="path4564"
         d="m -350.33598,95.91018 c -4.17711,-15.11953 2.81199,-36.48523 -21.62572,-40.27137 5.46914,-8.95369 12.97283,-8.347504 20.23052,-8.89716 11.35353,13.64865 3.94991,32.01888 1.3952,49.16853 z"
         style="fill:#990000;stroke:#000000;stroke-width:0.20004214px;stroke-linecap:butt;stroke-linejoin:miter;stroke-opacity:1" />
    </g>
  </g>
</svg>
